<svg width="123" height="78" viewBox="0 0 123 78" fill="none" xmlns="http://www.w3.org/2000/svg">
<g clip-path="url(#clip0_10_322)">
<path d="M61.9999 37.6234L80.6246 18.9993L62.0002 0.375426L43.3755 18.9995L61.9999 37.6234Z" stroke="black" stroke-width="0.743652"/>
<path d="M74.5227 19.3162L62.3145 7.10522L50.1062 19.3162L62.3144 31.5273L74.5227 19.3162Z" fill="black" stroke="black" stroke-width="0.741562"/>
<path d="M69.0051 19.1726L61.9832 12.3909L54.9613 19.1726L61.9832 25.9543L69.0051 19.1726Z" fill="white" stroke="black" stroke-width="0.755293"/>
<path d="M63.5232 19.0603L61.8372 17.3733L60.1511 19.0603L61.8372 20.7473L63.5232 19.0603Z" fill="black" stroke="black" stroke-width="0.438837"/>
<path d="M46.2676 21.8654L43.8955 24.2388L61.794 42.4926L80.167 24.1093L77.6655 21.7791M77.6655 21.7791L62.0916 37.6657L46.2676 21.8654" fill="black" stroke="black" stroke-width="0.999999"/>
</g>
<path d="M1.23003 65V64.632L3.13903 63.689L3.62203 51.131L1.62103 50.188V49.82H6.72703L11.626 61.182L16.502 49.82H21.401V50.188L19.446 50.97L19.837 63.689L21.516 64.632V65H15.237V64.632L17.031 63.712L16.801 52.626L11.465 65.115H10.269L4.93303 52.741L4.63403 63.712L6.58903 64.632V65H1.23003ZM23.2288 65V64.632L24.6548 63.85L30.6118 49.705H32.2218L38.1098 63.804L39.6738 64.632V65H33.0498V64.632L35.0508 63.827L33.4178 59.825H27.8978L26.2878 63.827L28.1968 64.632V65H23.2288ZM28.4268 58.56H32.8888L30.6578 53.063L28.4268 58.56ZM48.7658 65.23C47.6618 65.23 46.6345 65.046 45.6838 64.678C44.7331 64.31 43.9051 63.7887 43.1998 63.114C42.4945 62.4393 41.9425 61.6497 41.5438 60.745C41.1451 59.8403 40.9458 58.8513 40.9458 57.778C40.9458 56.5973 41.1681 55.5087 41.6128 54.512C42.0728 53.5153 42.6938 52.649 43.4758 51.913C44.2578 51.177 45.1548 50.6097 46.1668 50.211C47.1942 49.797 48.2752 49.59 49.4098 49.59C50.2225 49.59 50.9125 49.636 51.4798 49.728C52.0625 49.82 52.5762 49.9503 53.0208 50.119C53.4808 50.2877 53.9332 50.4793 54.3778 50.694L54.5618 54.627H54.1708L52.2848 51.637C51.7635 51.2997 51.2958 51.062 50.8818 50.924C50.4678 50.786 49.9925 50.717 49.4558 50.717C48.4132 50.717 47.4702 50.9853 46.6268 51.522C45.7835 52.0587 45.1165 52.8023 44.6258 53.753C44.1351 54.7037 43.8898 55.8 43.8898 57.042C43.8898 58.4833 44.1351 59.7177 44.6258 60.745C45.1318 61.7723 45.7988 62.562 46.6268 63.114C47.4702 63.666 48.4055 63.942 49.4328 63.942C49.7855 63.942 50.1535 63.9267 50.5368 63.896C50.9201 63.85 51.3035 63.7733 51.6868 63.666V59.572L49.6398 58.56V58.192H56.2408V58.56L54.5618 59.618V63.298C54.1018 63.6967 53.5421 64.0417 52.8828 64.333C52.2235 64.609 51.5335 64.8313 50.8128 65C50.1075 65.1533 49.4252 65.23 48.7658 65.23ZM66.51 65.23C65.406 65.23 64.3786 65.046 63.428 64.678C62.4773 64.31 61.6493 63.7887 60.944 63.114C60.2386 62.4393 59.6866 61.6497 59.288 60.745C58.8893 59.8403 58.69 58.8513 58.69 57.778C58.69 56.5973 58.9123 55.5087 59.357 54.512C59.817 53.5153 60.438 52.649 61.22 51.913C62.002 51.177 62.899 50.6097 63.911 50.211C64.9383 49.797 66.0193 49.59 67.154 49.59C67.9666 49.59 68.6566 49.636 69.224 49.728C69.8066 49.82 70.3203 49.9503 70.765 50.119C71.225 50.2877 71.6773 50.4793 72.122 50.694L72.306 54.627H71.915L70.029 51.637C69.5076 51.2997 69.04 51.062 68.626 50.924C68.212 50.786 67.7366 50.717 67.2 50.717C66.1573 50.717 65.2143 50.9853 64.371 51.522C63.5276 52.0587 62.8606 52.8023 62.37 53.753C61.8793 54.7037 61.634 55.8 61.634 57.042C61.634 58.4833 61.8793 59.7177 62.37 60.745C62.876 61.7723 63.543 62.562 64.371 63.114C65.2143 63.666 66.1496 63.942 67.177 63.942C67.5296 63.942 67.8976 63.9267 68.281 63.896C68.6643 63.85 69.0476 63.7733 69.431 63.666V59.572L67.384 58.56V58.192H73.985V58.56L72.306 59.618V63.298C71.846 63.6967 71.2863 64.0417 70.627 64.333C69.9676 64.609 69.2776 64.8313 68.557 65C67.8516 65.1533 67.1693 65.23 66.51 65.23ZM76.049 65V64.632L77.981 63.689V51.131L76.049 50.188V49.82H88.078V53.799H87.71L86.123 51.085H80.856V56.536H84.559L85.801 54.581H86.169V59.71H85.801L84.559 57.801H80.856V63.735H86.698L88.354 60.515H88.722V65H76.049ZM94.3328 65V64.632L96.7248 63.689V51.085H93.2518L91.5268 54.696H91.1588V49.82H105.189V54.696H104.821L103.096 51.085H99.6228V63.689L101.992 64.632V65H94.3328ZM105.908 65V64.632L107.334 63.85L113.291 49.705H114.901L120.789 63.804L122.353 64.632V65H115.729V64.632L117.73 63.827L116.097 59.825H110.577L108.967 63.827L110.876 64.632V65H105.908ZM111.106 58.56H115.568L113.337 53.063L111.106 58.56Z" fill="black"/>
<path d="M18.4078 76.04C18.2398 76.04 18.0958 76.024 17.9758 75.992C17.8584 75.96 17.7371 75.9133 17.6118 75.852L17.5718 75.192H17.6358L17.8478 75.628C17.9411 75.7053 18.0331 75.7613 18.1238 75.796C18.2144 75.8307 18.3051 75.848 18.3958 75.848C18.5504 75.848 18.6718 75.808 18.7598 75.728C18.8504 75.648 18.8958 75.5387 18.8958 75.4C18.8958 75.2907 18.8704 75.204 18.8198 75.14C18.7718 75.0733 18.6984 75.0147 18.5998 74.964C18.5038 74.9107 18.3851 74.8493 18.2438 74.78C18.0544 74.6893 17.9091 74.5947 17.8078 74.496C17.7064 74.3947 17.6558 74.2533 17.6558 74.072C17.6558 73.976 17.6784 73.884 17.7238 73.796C17.7718 73.7053 17.8358 73.6253 17.9158 73.556C17.9958 73.484 18.0851 73.4267 18.1838 73.384C18.2824 73.3413 18.3851 73.32 18.4918 73.32C18.6171 73.32 18.7344 73.3347 18.8438 73.364C18.9531 73.3933 19.0611 73.436 19.1678 73.492L19.2078 74.132H19.1438L18.9358 73.704C18.8504 73.6373 18.7731 73.5893 18.7038 73.56C18.6344 73.5307 18.5558 73.516 18.4678 73.516C18.3531 73.516 18.2571 73.5547 18.1798 73.632C18.1051 73.7093 18.0678 73.8067 18.0678 73.924C18.0678 74.0547 18.1078 74.1573 18.1878 74.232C18.2704 74.3067 18.4024 74.3867 18.5838 74.472C18.7438 74.5493 18.8758 74.624 18.9798 74.696C19.0864 74.7653 19.1651 74.844 19.2158 74.932C19.2664 75.02 19.2918 75.132 19.2918 75.268C19.2918 75.3933 19.2651 75.504 19.2118 75.6C19.1584 75.696 19.0878 75.7773 18.9998 75.844C18.9118 75.908 18.8158 75.9573 18.7118 75.992C18.6104 76.024 18.5091 76.04 18.4078 76.04ZM22.9638 76V75.936L23.2918 75.776V73.584L22.9638 73.424V73.36H24.0318V73.424L23.7078 73.584V75.776L24.0318 75.936V76H22.9638ZM27.7099 76V75.936L28.0299 75.776L28.1139 73.584L27.7699 73.424V73.36H28.5659L29.4619 75.428L30.3539 73.36H31.1179V73.424L30.7779 73.572L30.8459 75.776L31.1339 75.936V76H30.1459V75.936L30.4459 75.78L30.4059 73.824L29.4619 76.02H29.2699L28.3339 73.848L28.2819 75.78L28.6139 75.936V76H27.7099ZM34.797 76V75.936L35.121 75.776V73.584L34.797 73.424V73.36H35.917C36.2317 73.36 36.4837 73.4173 36.673 73.532C36.865 73.6467 36.961 73.828 36.961 74.076C36.961 74.2227 36.9104 74.3533 36.809 74.468C36.7104 74.58 36.5757 74.6693 36.405 74.736C36.2344 74.8 36.0397 74.832 35.821 74.832H35.541V75.776L35.909 75.936V76H34.797ZM35.541 73.58V74.62H35.845C36.0557 74.62 36.221 74.572 36.341 74.476C36.461 74.38 36.521 74.2573 36.521 74.108C36.521 73.9213 36.4597 73.7867 36.337 73.704C36.217 73.6213 36.0437 73.58 35.817 73.58H35.541ZM40.5947 76V75.936L40.9187 75.776V73.584L40.5947 73.424V73.36H41.7027V73.424L41.3387 73.584V75.78H42.2867L42.5707 75.092H42.6347V76H40.5947ZM46.3025 76V75.936L46.6265 75.776V73.584L46.3025 73.424V73.36H48.3105V74.048H48.2465L47.9865 73.58H47.0465V74.528H47.7105L47.9145 74.192H47.9785V75.076H47.9145L47.7105 74.748H47.0465V75.78H48.0945L48.3585 75.252H48.4225V76H46.3025ZM57.1632 76.04C56.9952 76.04 56.8512 76.024 56.7312 75.992C56.6139 75.96 56.4926 75.9133 56.3672 75.852L56.3272 75.192H56.3912L56.6032 75.628C56.6966 75.7053 56.7886 75.7613 56.8792 75.796C56.9699 75.8307 57.0606 75.848 57.1512 75.848C57.3059 75.848 57.4272 75.808 57.5152 75.728C57.6059 75.648 57.6512 75.5387 57.6512 75.4C57.6512 75.2907 57.6259 75.204 57.5752 75.14C57.5272 75.0733 57.4539 75.0147 57.3552 74.964C57.2592 74.9107 57.1406 74.8493 56.9992 74.78C56.8099 74.6893 56.6646 74.5947 56.5632 74.496C56.4619 74.3947 56.4112 74.2533 56.4112 74.072C56.4112 73.976 56.4339 73.884 56.4792 73.796C56.5272 73.7053 56.5912 73.6253 56.6712 73.556C56.7512 73.484 56.8406 73.4267 56.9392 73.384C57.0379 73.3413 57.1406 73.32 57.2472 73.32C57.3726 73.32 57.4899 73.3347 57.5992 73.364C57.7086 73.3933 57.8166 73.436 57.9232 73.492L57.9632 74.132H57.8992L57.6912 73.704C57.6059 73.6373 57.5286 73.5893 57.4592 73.56C57.3899 73.5307 57.3112 73.516 57.2232 73.516C57.1086 73.516 57.0126 73.5547 56.9352 73.632C56.8606 73.7093 56.8232 73.8067 56.8232 73.924C56.8232 74.0547 56.8632 74.1573 56.9432 74.232C57.0259 74.3067 57.1579 74.3867 57.3392 74.472C57.4992 74.5493 57.6312 74.624 57.7352 74.696C57.8419 74.7653 57.9206 74.844 57.9712 74.932C58.0219 75.02 58.0472 75.132 58.0472 75.268C58.0472 75.3933 58.0206 75.504 57.9672 75.6C57.9139 75.696 57.8432 75.7773 57.7552 75.844C57.6672 75.908 57.5712 75.9573 57.4672 75.992C57.3659 76.024 57.2646 76.04 57.1632 76.04ZM63.079 76.04C62.887 76.04 62.7083 76.0067 62.543 75.94C62.3803 75.8707 62.2377 75.776 62.115 75.656C61.995 75.5333 61.9017 75.3893 61.835 75.224C61.7683 75.0587 61.735 74.8773 61.735 74.68C61.735 74.4827 61.7683 74.3013 61.835 74.136C61.9017 73.9707 61.995 73.828 62.115 73.708C62.2377 73.5853 62.3803 73.4907 62.543 73.424C62.7083 73.3547 62.887 73.32 63.079 73.32C63.271 73.32 63.4483 73.3547 63.611 73.424C63.7763 73.4907 63.919 73.5853 64.039 73.708C64.1617 73.828 64.2563 73.9707 64.323 74.136C64.3923 74.3013 64.427 74.4827 64.427 74.68C64.427 74.8773 64.3923 75.0587 64.323 75.224C64.2563 75.3893 64.1617 75.5333 64.039 75.656C63.919 75.776 63.7763 75.8707 63.611 75.94C63.4483 76.0067 63.271 76.04 63.079 76.04ZM63.159 75.84C63.3217 75.84 63.4643 75.7973 63.587 75.712C63.7097 75.6267 63.8057 75.5067 63.875 75.352C63.9443 75.1973 63.979 75.0147 63.979 74.804C63.979 74.5453 63.9363 74.32 63.851 74.128C63.7657 73.9333 63.6497 73.7827 63.503 73.676C63.3563 73.5693 63.1937 73.516 63.015 73.516C62.8523 73.516 62.7083 73.5587 62.583 73.644C62.4577 73.7267 62.359 73.8453 62.287 74C62.2177 74.1547 62.183 74.3373 62.183 74.548C62.183 74.8067 62.2257 75.0333 62.311 75.228C62.399 75.4227 62.5163 75.5733 62.663 75.68C62.8123 75.7867 62.9777 75.84 63.159 75.84ZM68.1259 76V75.936L68.4499 75.776V73.584L68.1259 73.424V73.36H69.2339V73.424L68.8699 73.584V75.78H69.8179L70.1019 75.092H70.1659V76H68.1259ZM75.1438 76.04C74.9385 76.04 74.7545 76.0027 74.5918 75.928C74.4291 75.8533 74.3011 75.736 74.2078 75.576C74.1171 75.416 74.0718 75.2067 74.0718 74.948V73.584L73.7478 73.424V73.36H74.8158V73.424L74.4918 73.584V74.904C74.4918 75.1253 74.5265 75.3013 74.5958 75.432C74.6651 75.56 74.7585 75.652 74.8758 75.708C74.9931 75.764 75.1251 75.792 75.2718 75.792C75.3891 75.792 75.4971 75.768 75.5958 75.72C75.6971 75.6693 75.7771 75.5893 75.8358 75.48C75.8971 75.368 75.9278 75.2227 75.9278 75.044V73.576L75.5358 73.424V73.36H76.5318V73.424L76.2078 73.58V74.948C76.2078 75.2067 76.1611 75.416 76.0678 75.576C75.9771 75.736 75.8518 75.8533 75.6918 75.928C75.5318 76.0027 75.3491 76.04 75.1438 76.04ZM80.7214 76V75.936L81.1254 75.776V73.58H80.4934L80.2094 74.184H80.1454V73.36H82.5214V74.184H82.4574L82.1774 73.58H81.5414V75.776L81.9494 75.936V76H80.7214ZM86.1482 76V75.936L86.4762 75.776V73.584L86.1482 73.424V73.36H87.2162V73.424L86.8922 73.584V75.776L87.2162 75.936V76H86.1482ZM92.2743 76.04C92.0823 76.04 91.9036 76.0067 91.7383 75.94C91.5756 75.8707 91.433 75.776 91.3103 75.656C91.1903 75.5333 91.097 75.3893 91.0303 75.224C90.9636 75.0587 90.9303 74.8773 90.9303 74.68C90.9303 74.4827 90.9636 74.3013 91.0303 74.136C91.097 73.9707 91.1903 73.828 91.3103 73.708C91.433 73.5853 91.5756 73.4907 91.7383 73.424C91.9036 73.3547 92.0823 73.32 92.2743 73.32C92.4663 73.32 92.6436 73.3547 92.8063 73.424C92.9716 73.4907 93.1143 73.5853 93.2343 73.708C93.357 73.828 93.4516 73.9707 93.5183 74.136C93.5876 74.3013 93.6223 74.4827 93.6223 74.68C93.6223 74.8773 93.5876 75.0587 93.5183 75.224C93.4516 75.3893 93.357 75.5333 93.2343 75.656C93.1143 75.776 92.9716 75.8707 92.8063 75.94C92.6436 76.0067 92.4663 76.04 92.2743 76.04ZM92.3543 75.84C92.517 75.84 92.6596 75.7973 92.7823 75.712C92.905 75.6267 93.001 75.5067 93.0703 75.352C93.1396 75.1973 93.1743 75.0147 93.1743 74.804C93.1743 74.5453 93.1316 74.32 93.0463 74.128C92.961 73.9333 92.845 73.7827 92.6983 73.676C92.5516 73.5693 92.389 73.516 92.2103 73.516C92.0476 73.516 91.9036 73.5587 91.7783 73.644C91.653 73.7267 91.5543 73.8453 91.4823 74C91.413 74.1547 91.3783 74.3373 91.3783 74.548C91.3783 74.8067 91.421 75.0333 91.5063 75.228C91.5943 75.4227 91.7116 75.5733 91.8583 75.68C92.0076 75.7867 92.173 75.84 92.3543 75.84ZM97.3053 76V75.936L97.6293 75.776V73.592L97.3093 73.424V73.36H97.9373L99.4693 75.244V73.58L99.0573 73.424V73.36H100.069V73.424L99.7493 73.58V76.02H99.5773L97.9093 73.972V75.78L98.3213 75.936V76H97.3053ZM104.556 76.04C104.388 76.04 104.244 76.024 104.124 75.992C104.007 75.96 103.886 75.9133 103.76 75.852L103.72 75.192H103.784L103.996 75.628C104.09 75.7053 104.182 75.7613 104.272 75.796C104.363 75.8307 104.454 75.848 104.544 75.848C104.699 75.848 104.82 75.808 104.908 75.728C104.999 75.648 105.044 75.5387 105.044 75.4C105.044 75.2907 105.019 75.204 104.968 75.14C104.92 75.0733 104.847 75.0147 104.748 74.964C104.652 74.9107 104.534 74.8493 104.392 74.78C104.203 74.6893 104.058 74.5947 103.956 74.496C103.855 74.3947 103.804 74.2533 103.804 74.072C103.804 73.976 103.827 73.884 103.872 73.796C103.92 73.7053 103.984 73.6253 104.064 73.556C104.144 73.484 104.234 73.4267 104.332 73.384C104.431 73.3413 104.534 73.32 104.64 73.32C104.766 73.32 104.883 73.3347 104.992 73.364C105.102 73.3933 105.21 73.436 105.316 73.492L105.356 74.132H105.292L105.084 73.704C104.999 73.6373 104.922 73.5893 104.852 73.56C104.783 73.5307 104.704 73.516 104.616 73.516C104.502 73.516 104.406 73.5547 104.328 73.632C104.254 73.7093 104.216 73.8067 104.216 73.924C104.216 74.0547 104.256 74.1573 104.336 74.232C104.419 74.3067 104.551 74.3867 104.732 74.472C104.892 74.5493 105.024 74.624 105.128 74.696C105.235 74.7653 105.314 74.844 105.364 74.932C105.415 75.02 105.44 75.132 105.44 75.268C105.44 75.3933 105.414 75.504 105.36 75.6C105.307 75.696 105.236 75.7773 105.148 75.844C105.06 75.908 104.964 75.9573 104.86 75.992C104.759 76.024 104.658 76.04 104.556 76.04Z" fill="black"/>
<defs>
<clipPath id="clip0_10_322">
<rect width="38" height="43" fill="white" transform="translate(43)"/>
</clipPath>
</defs>
</svg>
