<svg width="89" height="89" viewBox="0 0 89 89" fill="none" xmlns="http://www.w3.org/2000/svg">
<path fill-rule="evenodd" clip-rule="evenodd" d="M44.4999 80.0999C53.9416 80.0999 62.9966 76.3492 69.6729 69.6729C76.3492 62.9966 80.0999 53.9416 80.0999 44.4999C80.0999 35.0582 76.3492 26.0032 69.6729 19.3269C62.9966 12.6506 53.9416 8.8999 44.4999 8.8999C35.0582 8.8999 26.0032 12.6506 19.3269 19.3269C12.6506 26.0032 8.8999 35.0582 8.8999 44.4999C8.8999 53.9416 12.6506 62.9966 19.3269 69.6729C26.0032 76.3492 35.0582 80.0999 44.4999 80.0999V80.0999ZM60.996 38.7461C61.8067 37.9068 62.2552 36.7827 62.245 35.6159C62.2349 34.4491 61.7669 33.333 60.9418 32.508C60.1168 31.6829 59.0007 31.2149 57.8339 31.2048C56.6671 31.1946 55.543 31.6431 54.7038 32.4538L40.0499 47.1076L34.2961 41.3538C33.4568 40.5431 32.3327 40.0946 31.1659 40.1048C29.9991 40.1149 28.883 40.5829 28.058 41.408C27.2329 42.233 26.7649 43.3491 26.7548 44.5159C26.7446 45.6827 27.1931 46.8068 28.0038 47.646L36.9038 56.546C37.7383 57.3803 38.8699 57.8489 40.0499 57.8489C41.2299 57.8489 42.3616 57.3803 43.196 56.546L60.996 38.7461V38.7461Z" fill="#91BFE9"/>
</svg>
